<svg width="652" height="200" viewBox="0 0 652 200" fill="none" xmlns="http://www.w3.org/2000/svg">
<g clip-path="url(#clip0_1234_111)">
<path d="M69.3372 23.7248C75.874 23.7248 81.1731 18.4138 81.1731 11.8624C81.1731 5.31098 75.874 0 69.3372 0C62.8004 0 57.5012 5.31098 57.5012 11.8624C57.5012 18.4138 62.8004 23.7248 69.3372 23.7248Z" fill="#6147FF"/>
<path fill-rule="evenodd" clip-rule="evenodd" d="M0 186.44L69.3372 37.2903L138.674 186.445H138.501C123.67 163.978 98.2333 149.155 69.3372 149.155C40.4412 149.155 15.0092 163.973 0.17856 186.44H0Z" fill="#6147FF"/>
<path d="M69.3372 200C75.874 200 81.1731 194.689 81.1731 188.138C81.1731 181.586 75.874 176.275 69.3372 176.275C62.8004 176.275 57.5012 181.586 57.5012 188.138C57.5012 194.689 62.8004 200 69.3372 200Z" fill="#6147FF"/>
<path d="M235.066 126.959H198.951L192.748 144.619H177.978L208.879 58.0442H225.261L256.167 144.619H241.275L235.071 126.959H235.066ZM231.092 115.393L217.067 75.214L202.92 115.393H231.092Z" fill="black"/>
<path d="M360.446 58.1721V144.619H346.298V85.4096L319.989 144.619H310.184L283.746 85.4096V144.619H269.599V58.1721H284.864L315.147 125.962L345.304 58.1721H360.446Z" fill="black"/>
<path d="M425.212 100.217C429.844 101.046 433.778 103.495 437.002 107.555C440.226 111.614 441.843 116.221 441.843 121.36C441.843 125.757 440.685 129.735 438.369 133.299C436.135 136.781 432.87 139.557 428.564 141.633C424.263 143.622 419.258 144.619 413.544 144.619H379.042V58.1721H411.932C417.804 58.1721 422.855 59.1692 427.074 61.1582C431.293 63.1472 434.482 65.8418 436.63 69.242C438.782 72.5604 439.854 76.2879 439.854 80.4346C439.854 85.4096 438.532 89.5564 435.885 92.8748C433.237 96.1932 429.681 98.6373 425.212 100.212V100.217ZM393.194 94.4905H410.692C415.325 94.4905 418.927 93.4526 421.493 91.3818C424.141 89.224 425.462 86.1562 425.462 82.1782C425.462 78.2002 424.141 75.255 421.493 73.0973C418.927 70.8577 415.33 69.738 410.692 69.738H393.194V94.4905ZM412.305 133.054C417.105 133.054 420.865 131.893 423.6 129.572C426.329 127.25 427.696 124.014 427.696 119.867C427.696 115.72 426.248 112.279 423.355 109.789C420.457 107.299 416.61 106.056 411.815 106.056H393.199V133.048H412.31L412.305 133.054Z" fill="black"/>
<path d="M509.222 126.959H473.107L466.903 144.619H452.134L483.04 58.0442H499.421L530.322 144.619H515.43L509.227 126.959H509.222ZM505.247 115.393L491.223 75.214L477.076 115.393H505.247Z" fill="black"/>
<path d="M591.292 144.619L557.907 105.934V144.619H543.755V58.1721H557.907V97.6044L591.415 58.1721H609.164L571.681 101.46L609.781 144.625H591.292V144.619Z" fill="black"/>
<path d="M269.084 185.954C268.069 185.529 267.268 184.916 266.676 184.113C266.085 183.31 265.784 182.364 265.763 181.275H269.666C269.717 182.006 269.982 182.589 270.462 183.014C270.936 183.438 271.594 183.653 272.426 183.653C273.258 183.653 273.941 183.453 274.431 183.055C274.916 182.656 275.161 182.129 275.161 181.48C275.161 180.953 274.997 180.518 274.666 180.176C274.334 179.833 273.926 179.567 273.431 179.368C272.936 179.174 272.258 178.954 271.39 178.719C270.212 178.376 269.253 178.039 268.513 177.706C267.773 177.374 267.141 176.873 266.615 176.198C266.09 175.523 265.819 174.623 265.819 173.498C265.819 172.44 266.09 171.519 266.625 170.737C267.161 169.955 267.916 169.351 268.891 168.937C269.86 168.518 270.972 168.308 272.222 168.308C274.094 168.308 275.62 168.758 276.788 169.648C277.956 170.543 278.604 171.79 278.727 173.396H274.722C274.686 172.782 274.421 172.276 273.926 171.877C273.431 171.478 272.778 171.279 271.962 171.279C271.253 171.279 270.681 171.458 270.258 171.816C269.834 172.174 269.62 172.695 269.62 173.375C269.62 173.851 269.778 174.25 270.1 174.567C270.421 174.884 270.819 175.139 271.299 175.334C271.773 175.528 272.446 175.758 273.314 176.014C274.492 176.356 275.456 176.694 276.201 177.036C276.946 177.379 277.589 177.89 278.125 178.57C278.66 179.25 278.931 180.145 278.931 181.255C278.931 182.211 278.681 183.095 278.176 183.914C277.671 184.732 276.936 185.386 275.961 185.872C274.992 186.358 273.834 186.598 272.503 186.598C271.237 186.598 270.095 186.383 269.079 185.959L269.084 185.954Z" fill="black"/>
<path d="M282.328 169.96C281.905 169.561 281.691 169.06 281.691 168.467C281.691 167.874 281.905 167.373 282.328 166.969C282.752 166.57 283.287 166.371 283.93 166.371C284.573 166.371 285.104 166.57 285.532 166.969C285.956 167.368 286.17 167.869 286.17 168.467C286.17 169.065 285.956 169.561 285.532 169.96C285.109 170.359 284.573 170.558 283.93 170.558C283.287 170.558 282.757 170.359 282.328 169.96ZM285.721 172.251V186.414H282.078V172.251H285.721Z" fill="black"/>
<path d="M311.495 173.642C312.576 174.706 313.122 176.194 313.122 178.101V186.41H309.48V178.587C309.48 177.477 309.194 176.628 308.623 176.04C308.051 175.452 307.271 175.161 306.281 175.161C305.291 175.161 304.505 175.457 303.924 176.04C303.342 176.628 303.052 177.477 303.052 178.587V186.41H299.409V178.587C299.409 177.477 299.123 176.628 298.552 176.04C297.98 175.452 297.2 175.161 296.21 175.161C295.22 175.161 294.409 175.457 293.828 176.04C293.246 176.628 292.955 177.477 292.955 178.587V186.41H289.313V172.246H292.955V173.959C293.425 173.361 294.027 172.896 294.761 172.553C295.496 172.21 296.307 172.042 297.195 172.042C298.322 172.042 299.327 172.277 300.215 172.747C301.098 173.218 301.786 173.882 302.271 174.752C302.74 173.934 303.419 173.279 304.312 172.783C305.204 172.287 306.174 172.042 307.214 172.042C308.985 172.042 310.408 172.574 311.495 173.637V173.642Z" fill="black"/>
<path d="M322.162 172.67C322.984 172.236 323.928 172.016 324.984 172.016C326.213 172.016 327.33 172.312 328.325 172.911C329.325 173.509 330.111 174.358 330.693 175.457C331.274 176.556 331.565 177.829 331.565 179.276C331.565 180.723 331.274 182.007 330.693 183.127C330.111 184.241 329.32 185.111 328.325 185.724C327.325 186.338 326.213 186.644 324.984 186.644C323.928 186.644 322.994 186.43 322.188 186.005C321.382 185.581 320.724 185.044 320.224 184.395V193.164H316.581V172.251H320.224V174.296C320.693 173.647 321.336 173.105 322.162 172.675V172.67ZM327.31 177.068C326.953 176.444 326.484 175.973 325.907 175.651C325.326 175.329 324.698 175.166 324.019 175.166C323.341 175.166 322.739 175.334 322.157 175.662C321.576 175.994 321.106 176.474 320.754 177.109C320.397 177.737 320.219 178.479 320.219 179.333C320.219 180.187 320.397 180.928 320.754 181.557C321.111 182.186 321.576 182.666 322.157 183.004C322.739 183.336 323.356 183.5 324.019 183.5C324.683 183.5 325.326 183.331 325.907 182.989C326.489 182.646 326.958 182.16 327.31 181.531C327.667 180.902 327.841 180.151 327.841 179.282C327.841 178.412 327.662 177.691 327.31 177.068Z" fill="black"/>
<path d="M337.861 167.495V186.414H334.218V167.495H337.861Z" fill="black"/>
<path d="M341.702 169.96C341.279 169.561 341.064 169.06 341.064 168.467C341.064 167.874 341.279 167.373 341.702 166.969C342.125 166.57 342.661 166.371 343.304 166.371C343.947 166.371 344.477 166.57 344.906 166.969C345.329 167.368 345.544 167.869 345.544 168.467C345.544 169.065 345.329 169.561 344.906 169.96C344.482 170.359 343.947 170.558 343.304 170.558C342.661 170.558 342.131 170.359 341.702 169.96ZM345.095 172.251V186.414H341.452V172.251H345.095Z" fill="black"/>
<path d="M355.293 175.191H352.768V186.414H349.074V175.191H347.436V172.251H349.074V171.535C349.074 169.797 349.579 168.518 350.584 167.7C351.589 166.882 353.109 166.499 355.135 166.55V169.567C354.252 169.551 353.635 169.694 353.288 170.001C352.941 170.308 352.768 170.86 352.768 171.663V172.251H355.293V175.191Z" fill="black"/>
<path d="M371.45 172.251L362.527 193.113H358.65L361.772 186.057L355.997 172.251H360.083L363.802 182.145L367.578 172.251H371.455H371.45Z" fill="black"/>
<path d="M373.649 169.96C373.225 169.561 373.011 169.06 373.011 168.467C373.011 167.874 373.225 167.373 373.649 166.969C374.072 166.57 374.608 166.371 375.251 166.371C375.894 166.371 376.424 166.57 376.853 166.969C377.276 167.368 377.49 167.869 377.49 168.467C377.49 169.065 377.276 169.561 376.853 169.96C376.429 170.359 375.894 170.558 375.251 170.558C374.608 170.558 374.077 170.359 373.649 169.96ZM377.047 172.251V186.414H373.404V172.251H377.047Z" fill="black"/>
<path d="M392.785 173.642C393.841 174.706 394.372 176.194 394.372 178.101V186.41H390.729V178.587C390.729 177.462 390.444 176.598 389.872 175.989C389.301 175.386 388.52 175.079 387.531 175.079C386.541 175.079 385.73 175.381 385.148 175.989C384.567 176.592 384.276 177.462 384.276 178.587V186.41H380.633V172.246H384.276V174.01C384.76 173.397 385.383 172.916 386.138 172.563C386.893 172.216 387.719 172.042 388.622 172.042C390.342 172.042 391.729 172.574 392.785 173.637V173.642Z" fill="black"/>
<path d="M406.315 172.644C407.131 173.064 407.774 173.606 408.238 174.265V172.245H411.906V186.511C411.906 187.825 411.636 188.996 411.1 190.029C410.565 191.062 409.753 191.88 408.682 192.483C407.606 193.086 406.305 193.393 404.779 193.393C402.734 193.393 401.055 192.923 399.744 191.987C398.433 191.051 397.693 189.773 397.52 188.152H401.137C401.325 188.802 401.739 189.313 402.371 189.696C403.004 190.08 403.774 190.269 404.672 190.269C405.728 190.269 406.59 189.957 407.249 189.333C407.907 188.71 408.238 187.769 408.238 186.511V184.312C407.769 184.977 407.126 185.529 406.3 185.974C405.473 186.419 404.534 186.639 403.478 186.639C402.264 186.639 401.152 186.332 400.147 185.718C399.142 185.105 398.346 184.241 397.764 183.121C397.183 182.006 396.892 180.723 396.892 179.271C396.892 177.819 397.183 176.571 397.764 175.462C398.346 174.352 399.137 173.503 400.132 172.905C401.126 172.307 402.244 172.01 403.473 172.01C404.55 172.01 405.494 172.22 406.31 172.639L406.315 172.644ZM407.723 177.093C407.376 176.469 406.907 175.993 406.32 175.661C405.728 175.329 405.096 175.165 404.422 175.165C403.749 175.165 403.121 175.329 402.55 175.651C401.978 175.973 401.514 176.448 401.157 177.067C400.8 177.691 400.627 178.427 400.627 179.281C400.627 180.135 400.805 180.876 401.157 181.521C401.514 182.16 401.978 182.651 402.56 182.993C403.142 183.336 403.759 183.505 404.422 183.505C405.085 183.505 405.733 183.336 406.32 183.009C406.912 182.676 407.376 182.201 407.723 181.577C408.07 180.953 408.243 180.207 408.243 179.337C408.243 178.468 408.07 177.722 407.723 177.098V177.093Z" fill="black"/>
<path d="M436.731 168.569V186.414H433.089V178.821H425.308V186.414H421.666V168.569H425.308V175.907H433.089V168.569H436.731Z" fill="black"/>
<path d="M442.976 185.734C441.864 185.131 440.996 184.272 440.359 183.168C439.721 182.063 439.41 180.78 439.41 179.333C439.41 177.886 439.736 176.607 440.384 175.498C441.032 174.388 441.925 173.534 443.052 172.926C444.18 172.323 445.435 172.016 446.823 172.016C448.21 172.016 449.47 172.318 450.598 172.926C451.725 173.529 452.613 174.388 453.266 175.498C453.919 176.607 454.24 177.886 454.24 179.333C454.24 180.78 453.909 182.058 453.24 183.168C452.572 184.277 451.669 185.131 450.537 185.734C449.399 186.338 448.129 186.644 446.726 186.644C445.323 186.644 444.088 186.343 442.981 185.734H442.976ZM448.583 183.05C449.164 182.733 449.629 182.263 449.975 181.634C450.322 181.005 450.496 180.238 450.496 179.333C450.496 177.988 450.134 176.95 449.414 176.224C448.695 175.498 447.812 175.14 446.772 175.14C445.731 175.14 444.858 175.503 444.159 176.224C443.461 176.945 443.103 177.983 443.103 179.333C443.103 180.683 443.445 181.715 444.134 182.436C444.818 183.162 445.68 183.52 446.721 183.52C447.379 183.52 448.001 183.362 448.583 183.05Z" fill="black"/>
<path d="M479.106 173.642C480.188 174.706 480.733 176.194 480.733 178.101V186.41H477.091V178.587C477.091 177.477 476.805 176.628 476.234 176.04C475.662 175.452 474.882 175.161 473.892 175.161C472.902 175.161 472.117 175.457 471.535 176.04C470.954 176.628 470.663 177.477 470.663 178.587V186.41H467.02V178.587C467.02 177.477 466.734 176.628 466.163 176.04C465.592 175.452 464.811 175.161 463.821 175.161C462.832 175.161 462.02 175.457 461.439 176.04C460.857 176.628 460.566 177.477 460.566 178.587V186.41H456.924V172.246H460.566V173.959C461.036 173.361 461.638 172.896 462.372 172.553C463.107 172.21 463.918 172.042 464.806 172.042C465.933 172.042 466.938 172.277 467.826 172.747C468.714 173.218 469.398 173.882 469.882 174.752C470.352 173.934 471.03 173.279 471.923 172.783C472.816 172.287 473.785 172.042 474.826 172.042C476.596 172.042 478.019 172.574 479.106 173.637V173.642Z" fill="black"/>
<path d="M497.487 180.406H486.947C487.034 181.429 487.396 182.232 488.039 182.809C488.682 183.387 489.468 183.679 490.406 183.679C491.758 183.679 492.722 183.106 493.294 181.966H497.222C496.804 183.331 496.008 184.451 494.829 185.33C493.651 186.21 492.202 186.649 490.483 186.649C489.095 186.649 487.85 186.348 486.748 185.739C485.646 185.136 484.789 184.277 484.172 183.172C483.555 182.068 483.249 180.785 483.249 179.338C483.249 177.891 483.55 176.587 484.162 175.477C484.769 174.368 485.621 173.519 486.713 172.921C487.804 172.322 489.064 172.026 490.483 172.026C491.901 172.026 493.08 172.317 494.166 172.895C495.248 173.473 496.09 174.296 496.692 175.365C497.288 176.428 497.589 177.65 497.589 179.031C497.589 179.542 497.554 180.002 497.487 180.411V180.406ZM493.819 178.003C493.799 177.083 493.462 176.346 492.804 175.789C492.146 175.237 491.34 174.961 490.386 174.961C489.483 174.961 488.723 175.232 488.11 175.769C487.498 176.306 487.116 177.052 486.978 178.008H493.819V178.003Z" fill="black"/>
<path d="M517.65 168.569V171.458H510.079V176.034H515.879V178.872H510.079V186.414H506.436V168.569H517.65Z" fill="black"/>
<path d="M520.471 169.96C520.047 169.561 519.833 169.06 519.833 168.467C519.833 167.874 520.047 167.373 520.471 166.969C520.894 166.57 521.43 166.371 522.073 166.371C522.715 166.371 523.246 166.57 523.674 166.969C524.098 167.368 524.312 167.869 524.312 168.467C524.312 169.065 524.098 169.561 523.674 169.96C523.251 170.359 522.715 170.558 522.073 170.558C521.43 170.558 520.899 170.359 520.471 169.96ZM523.868 172.251V186.414H520.226V172.251H523.868Z" fill="black"/>
<path d="M539.607 173.642C540.663 174.706 541.194 176.194 541.194 178.101V186.41H537.551V178.587C537.551 177.462 537.266 176.598 536.694 175.989C536.123 175.386 535.342 175.079 534.352 175.079C533.363 175.079 532.552 175.381 531.97 175.989C531.388 176.592 531.098 177.462 531.098 178.587V186.41H527.455V172.246H531.098V174.01C531.582 173.397 532.205 172.916 532.96 172.563C533.715 172.216 534.541 172.042 535.444 172.042C537.164 172.042 538.551 172.574 539.607 173.637V173.642Z" fill="black"/>
<path d="M544.592 175.472C545.173 174.362 545.964 173.514 546.959 172.915C547.959 172.317 549.071 172.021 550.301 172.021C551.377 172.021 552.316 172.235 553.122 172.66C553.928 173.084 554.576 173.621 555.06 174.27V172.251H558.729V186.414H555.06V184.343C554.591 185.008 553.943 185.56 553.122 185.99C552.295 186.424 551.346 186.644 550.275 186.644C549.061 186.644 547.954 186.337 546.959 185.724C545.959 185.11 545.173 184.246 544.592 183.126C544.01 182.012 543.719 180.728 543.719 179.276C543.719 177.824 544.01 176.576 544.592 175.467V175.472ZM554.545 177.093C554.198 176.469 553.729 175.993 553.142 175.661C552.55 175.329 551.918 175.165 551.244 175.165C550.571 175.165 549.943 175.329 549.372 175.651C548.801 175.973 548.336 176.448 547.979 177.067C547.622 177.691 547.449 178.427 547.449 179.281C547.449 180.135 547.627 180.876 547.979 181.521C548.331 182.165 548.806 182.651 549.382 182.993C549.964 183.336 550.581 183.505 551.244 183.505C551.908 183.505 552.555 183.336 553.142 183.009C553.734 182.676 554.198 182.201 554.545 181.577C554.892 180.953 555.066 180.207 555.066 179.337C555.066 178.468 554.892 177.722 554.545 177.098V177.093Z" fill="black"/>
<path d="M574.447 173.642C575.503 174.706 576.033 176.194 576.033 178.101V186.41H572.391V178.587C572.391 177.462 572.105 176.598 571.534 175.989C570.962 175.386 570.182 175.079 569.192 175.079C568.202 175.079 567.391 175.381 566.81 175.989C566.228 176.592 565.937 177.462 565.937 178.587V186.41H562.295V172.246H565.937V174.01C566.422 173.397 567.044 172.916 567.799 172.563C568.554 172.216 569.381 172.042 570.284 172.042C572.003 172.042 573.391 172.574 574.447 173.637V173.642Z" fill="black"/>
<path d="M579.467 175.483C580.074 174.383 580.916 173.529 581.992 172.926C583.069 172.323 584.298 172.016 585.686 172.016C587.472 172.016 588.951 172.456 590.124 173.335C591.293 174.214 592.078 175.442 592.481 177.032H588.553C588.344 176.418 587.992 175.938 587.497 175.585C587.002 175.237 586.39 175.058 585.66 175.058C584.62 175.058 583.793 175.431 583.191 176.168C582.584 176.909 582.278 177.962 582.278 179.328C582.278 180.693 582.579 181.715 583.191 182.457C583.798 183.198 584.62 183.566 585.66 183.566C587.135 183.566 588.099 182.917 588.548 181.623H592.476C592.078 183.157 591.288 184.374 590.109 185.279C588.931 186.184 587.456 186.634 585.686 186.634C584.298 186.634 583.069 186.333 581.992 185.724C580.916 185.121 580.074 184.267 579.467 183.168C578.86 182.068 578.559 180.785 578.559 179.322C578.559 177.86 578.86 176.572 579.467 175.472V175.483Z" fill="black"/>
<path d="M608.455 180.406H597.915C598.002 181.429 598.364 182.232 599.007 182.809C599.649 183.387 600.44 183.679 601.374 183.679C602.726 183.679 603.69 183.106 604.261 181.966H608.19C607.771 183.331 606.975 184.451 605.797 185.33C604.618 186.21 603.17 186.649 601.45 186.649C600.063 186.649 598.818 186.348 597.716 185.739C596.614 185.136 595.757 184.277 595.14 183.172C594.522 182.063 594.216 180.785 594.216 179.338C594.216 177.891 594.517 176.587 595.124 175.477C595.731 174.368 596.583 173.519 597.675 172.921C598.767 172.322 600.027 172.026 601.45 172.026C602.874 172.026 604.047 172.317 605.134 172.895C606.215 173.473 607.057 174.296 607.659 175.365C608.256 176.428 608.557 177.65 608.557 179.031C608.557 179.542 608.521 180.002 608.455 180.411V180.406ZM604.787 178.003C604.771 177.083 604.43 176.346 603.772 175.789C603.113 175.237 602.307 174.961 601.353 174.961C600.45 174.961 599.69 175.232 599.078 175.769C598.461 176.306 598.083 177.052 597.945 178.008H604.787V178.003Z" fill="black"/>
<path d="M651.772 57.991C651.79 66.8041 644.621 74.0091 635.763 74C626.922 73.9909 619.781 66.8314 619.781 57.9728C619.781 49.2051 626.904 41.9638 635.845 42.0001C644.739 42.0365 651.79 49.2778 651.772 57.991ZM649.746 58.0001C649.737 50.2681 643.467 44.0626 635.845 44.0262C628.131 43.999 621.834 50.25 621.807 57.9546C621.789 65.6593 628.031 71.9466 635.736 71.9648C643.477 71.983 649.746 65.7138 649.746 58.0001Z" fill="black"/>
<path d="M634.479 63.7817C634.726 60.335 634.981 56.8882 635.227 53.4333C635.268 53.4333 635.293 53.425 635.326 53.425C635.877 53.425 636.42 53.425 636.971 53.425C637.07 53.425 637.103 53.458 637.136 53.5402C637.555 54.5849 637.975 55.6297 638.394 56.6661C638.962 58.081 639.538 59.5042 640.114 60.919C640.122 60.9437 640.138 60.9684 640.155 61.0178C640.188 60.9355 640.221 60.8697 640.245 60.7957C641.035 58.8378 641.825 56.88 642.614 54.9222C642.804 54.4533 642.993 53.9844 643.182 53.5155C643.207 53.4497 643.248 53.425 643.322 53.425C643.873 53.425 644.424 53.425 644.975 53.425C645.008 53.425 645.041 53.425 645.082 53.425C645.329 56.88 645.584 60.3268 645.831 63.7817C645.206 63.7817 644.589 63.7817 643.955 63.7817C643.799 61.6265 643.651 59.463 643.495 57.2996C643.486 57.2996 643.478 57.2996 643.47 57.2996C643.404 57.4559 643.338 57.604 643.281 57.7603C642.524 59.603 641.767 61.4373 641.01 63.2799C640.953 63.428 640.887 63.5762 640.829 63.7243C640.805 63.7818 640.772 63.7982 640.714 63.7982C640.344 63.7982 639.974 63.7982 639.604 63.7982C639.538 63.7982 639.505 63.7736 639.48 63.716C638.781 62.005 638.082 60.3022 637.374 58.5993C637.202 58.188 637.037 57.7767 636.864 57.3654C636.856 57.3489 636.848 57.3326 636.823 57.2914C636.807 57.5135 636.79 57.7191 636.782 57.9165C636.733 58.5582 636.692 59.1998 636.642 59.8414C636.601 60.4666 636.552 61.0919 636.511 61.7253C636.469 62.2682 636.437 62.8028 636.395 63.3458C636.387 63.4774 636.379 63.6091 636.371 63.7407C636.371 63.7901 636.363 63.8147 636.305 63.8147C635.713 63.8147 635.112 63.8147 634.52 63.8147C634.503 63.7901 634.495 63.79 634.479 63.7817Z" fill="black"/>
<path d="M630.826 55.1524C630.826 58.0398 630.826 60.9107 630.826 63.7899C630.184 63.7899 629.551 63.7899 628.909 63.7899C628.909 60.9107 628.909 58.0398 628.909 55.1524C627.692 55.1524 626.483 55.1524 625.265 55.1524C625.265 54.5766 625.265 54.009 625.265 53.4414C628.317 53.4414 631.361 53.4414 634.421 53.4414C634.421 54.009 634.421 54.5766 634.421 55.1524C633.228 55.1524 632.035 55.1524 630.826 55.1524Z" fill="black"/>
</g>
<defs>
<clipPath id="clip0_1234_111">
<rect width="652" height="200" fill="white"/>
</clipPath>
</defs>
</svg>
